
<svg xmlns="http://www.w3.org/2000/svg"
     class="svg-snoweb svg-theme-light"
     x="0"
     y="0"
     width="100%"
     height="100%"
     viewBox="0 0 100 100"
     preserveAspectRatio="xMidYMid meet"
>
<defs>
    <style>
        
            
            
            
        

        .svg-fill-primary {
            fill: #ffffff;
        }

        .svg-fill-secondary {
            fill: #65CDAE;
        }

        .svg-fill-tertiary {
            fill: #E5E7EB;
        }

        .svg-stroke-primary {
            stroke: #ffffff;
        }

        .svg-stroke-secondary {
            stroke: #65CDAE;
        }

        .svg-stroke-tertiary {
            stroke: #E5E7EB;
        }
    </style>
</defs>
    <path d="M24.7,29.4a4.6,4.6,0,0,0-4.4-.2A4.5,4.5,0,0,0,18.1,33V67a4.5,4.5,0,0,0,2.2,3.8,4.6,4.6,0,0,0,4.4-.2L47.9,55.1V67a4.3,4.3,0,0,0,2.2,3.8,4.6,4.6,0,0,0,4.4-.2L80,53.5a4.2,4.2,0,0,0,0-7L54.5,29.4a4.6,4.6,0,0,0-4.4-.2A4.3,4.3,0,0,0,47.9,33V44.9Z"
          class="svg-fill-primary"/>
</svg>