<svg xmlns="http://www.w3.org/2000/svg" xmlns:xlink="http://www.w3.org/1999/xlink" width="500" zoomAndPan="magnify" viewBox="0 0 375 374.999991" height="500" preserveAspectRatio="xMidYMid meet" version="1.0"><defs><clipPath id="f14d62cc39"><path d="M 185 141 L 345 141 L 345 268.628906 L 185 268.628906 Z M 185 141 " clip-rule="nonzero"/></clipPath><clipPath id="70a9c3ef10"><path d="M 30 106.628906 L 190 106.628906 L 190 234 L 30 234 Z M 30 106.628906 " clip-rule="nonzero"/></clipPath><clipPath id="8253d44318"><path d="M 23 106.628906 L 352 106.628906 L 352 268.628906 L 23 268.628906 Z M 23 106.628906 " clip-rule="nonzero"/></clipPath></defs><path fill="#a855f7" d="M 322.050781 247.371094 C 316.617188 251.984375 310.855469 255.777344 304.601562 258.90625 C 294.234375 263.851562 282.710938 266.488281 270.695312 266.488281 C 249.625 266.488281 229.875 258.25 215.058594 243.417969 L 187.570312 215.894531 L 215.882812 187.546875 L 226.746094 198.425781 L 243.207031 214.90625 C 250.449219 222.15625 260.160156 226.277344 270.53125 226.277344 C 280.898438 226.277344 290.609375 222.320312 297.855469 214.90625 C 312.996094 199.742188 312.996094 175.1875 297.855469 160.191406 C 290.609375 152.941406 280.898438 148.820312 270.53125 148.820312 C 265.097656 148.820312 259.667969 149.972656 254.894531 152.117188 C 263.617188 146.84375 273.820312 143.875 284.6875 143.875 C 316.78125 143.875 342.953125 169.914062 342.953125 202.214844 C 342.953125 218.53125 336.371094 233.199219 325.507812 243.746094 C 320.238281 248.855469 317.441406 250.996094 322.050781 247.371094 Z M 322.050781 247.371094 " fill-opacity="1" fill-rule="nonzero"/><g clip-path="url(#f14d62cc39)"><path fill="#a855f7" d="M 270.695312 268.628906 C 249.132812 268.628906 228.722656 260.226562 213.578125 244.898438 L 186.089844 217.542969 C 185.761719 217.210938 185.429688 216.554688 185.429688 216.058594 C 185.429688 215.566406 185.597656 214.90625 186.089844 214.574219 L 214.402344 186.230469 C 215.222656 185.40625 216.539062 185.40625 217.363281 186.230469 L 244.6875 213.585938 C 251.601562 220.507812 260.820312 224.300781 270.53125 224.300781 C 280.242188 224.300781 289.460938 220.507812 296.371094 213.585938 C 310.691406 199.25 310.691406 176.175781 296.371094 161.839844 C 289.460938 154.917969 280.242188 151.128906 270.53125 151.128906 C 265.425781 151.128906 260.488281 152.117188 255.714844 154.257812 C 254.726562 154.753906 253.574219 154.257812 252.917969 153.269531 C 252.421875 152.28125 252.753906 151.128906 253.742188 150.46875 C 263.121094 144.863281 273.820312 141.898438 284.6875 141.898438 C 317.933594 141.898438 344.929688 168.925781 344.929688 202.214844 C 344.929688 218.53125 338.511719 233.859375 326.988281 245.230469 C 325.507812 246.546875 324.519531 247.699219 323.53125 248.523438 C 323.367188 248.691406 323.367188 248.855469 323.203125 248.855469 C 322.875 249.019531 322.707031 249.347656 322.378906 249.515625 C 321.722656 250.171875 321.226562 250.503906 320.898438 250.832031 C 316.125 254.621094 310.855469 257.917969 305.261719 260.554688 C 294.5625 265.828125 282.875 268.628906 270.695312 268.628906 Z M 190.699219 215.894531 L 216.539062 241.769531 C 231.027344 256.269531 250.285156 264.179688 270.695312 264.179688 C 282.214844 264.179688 293.246094 261.710938 303.613281 256.765625 C 308.882812 254.128906 313.984375 250.996094 318.59375 247.207031 C 319.25 246.710938 321.390625 244.734375 324.191406 241.933594 C 335.054688 231.222656 340.980469 217.046875 340.980469 201.886719 C 340.980469 170.902344 315.796875 145.6875 284.851562 145.6875 C 281.394531 145.6875 278.101562 146.019531 274.644531 146.675781 C 284.027344 147.667969 292.75 151.621094 299.5 158.378906 C 315.464844 174.363281 315.464844 200.238281 299.5 216.058594 C 291.761719 223.804688 281.558594 228.089844 270.695312 228.089844 C 259.832031 228.089844 249.625 223.804688 241.890625 216.058594 L 216.046875 190.183594 Z M 190.699219 215.894531 " fill-opacity="1" fill-rule="nonzero"/></g><path fill="#a855f7" d="M 53.257812 127.890625 C 58.6875 123.277344 64.449219 119.484375 70.703125 116.355469 C 81.074219 111.410156 92.597656 108.773438 104.613281 108.773438 C 125.679688 108.773438 145.433594 117.011719 160.246094 131.84375 L 187.570312 159.203125 L 159.257812 187.546875 L 148.394531 176.671875 L 131.9375 160.191406 C 124.691406 152.941406 114.980469 148.820312 104.613281 148.820312 C 94.242188 148.820312 84.53125 152.773438 77.289062 160.191406 C 62.144531 175.351562 62.144531 199.910156 77.289062 214.90625 C 84.53125 222.15625 94.242188 226.277344 104.613281 226.277344 C 110.042969 226.277344 115.476562 225.125 120.25 222.980469 C 111.523438 228.253906 101.320312 231.222656 90.457031 231.222656 C 58.359375 231.222656 32.1875 205.183594 32.1875 173.046875 C 32.1875 156.730469 38.769531 142.0625 49.636719 131.515625 C 54.902344 126.242188 57.699219 124.265625 53.257812 127.890625 Z M 53.257812 127.890625 " fill-opacity="1" fill-rule="nonzero"/><g clip-path="url(#70a9c3ef10)"><path fill="#a855f7" d="M 90.457031 233.363281 C 57.207031 233.363281 30.210938 206.335938 30.210938 173.046875 C 30.210938 156.730469 36.632812 141.402344 48.152344 130.03125 C 49.636719 128.714844 50.621094 127.5625 51.609375 126.738281 C 51.773438 126.570312 51.773438 126.40625 51.941406 126.40625 C 52.269531 126.242188 52.433594 125.914062 52.761719 125.746094 C 53.421875 125.089844 53.914062 124.757812 54.242188 124.429688 C 59.015625 120.640625 64.285156 117.34375 69.882812 114.707031 C 80.746094 109.269531 92.429688 106.628906 104.613281 106.628906 C 126.175781 106.628906 146.585938 115.035156 161.730469 130.363281 L 189.050781 157.71875 C 189.382812 158.050781 189.710938 158.707031 189.710938 159.203125 C 189.710938 159.695312 189.546875 160.355469 189.050781 160.6875 L 160.742188 189.03125 C 159.917969 189.855469 158.601562 189.855469 157.777344 189.03125 L 130.453125 161.675781 C 123.542969 154.753906 114.324219 150.960938 104.613281 150.960938 C 94.902344 150.960938 85.683594 154.753906 78.769531 161.675781 C 64.449219 176.011719 64.449219 199.085938 78.769531 213.421875 C 85.683594 220.34375 94.902344 224.132812 104.613281 224.132812 C 109.714844 224.132812 114.652344 223.144531 119.425781 221.003906 C 120.414062 220.507812 121.566406 221.003906 122.222656 221.992188 C 122.71875 222.980469 122.390625 224.132812 121.402344 224.792969 C 112.019531 230.398438 101.320312 233.363281 90.457031 233.363281 Z M 56.714844 127.726562 C 56.054688 128.21875 53.914062 130.199219 51.117188 132.835938 C 40.253906 143.546875 34.328125 157.882812 34.328125 173.046875 C 34.328125 204.027344 59.511719 229.242188 90.457031 229.242188 C 93.914062 229.242188 97.203125 228.914062 100.660156 228.253906 C 91.277344 227.265625 82.554688 223.308594 75.808594 216.554688 C 59.839844 200.566406 59.839844 174.695312 75.808594 158.871094 C 83.542969 151.128906 93.75 146.84375 104.613281 146.84375 C 115.476562 146.84375 125.679688 151.128906 133.417969 158.871094 L 159.257812 184.746094 L 184.609375 159.367188 L 158.765625 133.328125 C 144.28125 118.824219 125.023438 110.914062 104.613281 110.914062 C 93.089844 110.914062 82.0625 113.386719 71.691406 118.332031 C 66.425781 120.804688 61.320312 124.101562 56.714844 127.726562 Z M 56.714844 127.726562 " fill-opacity="1" fill-rule="nonzero"/></g><path fill="#af35a7" d="M 326.328125 131.84375 C 311.515625 117.011719 291.761719 108.773438 270.695312 108.773438 C 249.625 108.773438 229.875 117.011719 215.058594 131.84375 L 131.9375 214.90625 C 128.480469 218.367188 124.527344 221.003906 120.25 222.980469 C 111.523438 228.253906 101.320312 231.222656 90.457031 231.222656 C 58.359375 231.222656 32.1875 205.183594 32.1875 173.046875 C 32.1875 157.058594 38.441406 142.394531 48.8125 131.84375 C 18.03125 162.664062 18.03125 212.597656 48.8125 243.417969 C 63.625 258.25 83.378906 266.488281 104.449219 266.488281 C 125.515625 266.488281 145.269531 258.25 160.082031 243.417969 L 243.042969 160.355469 C 246.5 156.894531 250.449219 154.257812 254.726562 152.28125 C 263.453125 147.007812 273.65625 144.039062 284.519531 144.039062 C 316.617188 144.039062 342.789062 170.078125 342.789062 202.378906 C 342.789062 218.367188 336.535156 233.035156 326.164062 243.582031 C 357.109375 212.597656 357.109375 162.664062 326.328125 131.84375 Z M 326.328125 131.84375 " fill-opacity="1" fill-rule="nonzero"/><g clip-path="url(#8253d44318)"><path fill="#a855f7" d="M 104.613281 268.628906 C 83.050781 268.628906 62.636719 260.226562 47.496094 244.898438 C 32.1875 229.574219 23.792969 209.300781 23.792969 187.546875 C 23.792969 165.960938 32.1875 145.6875 47.496094 130.363281 C 48.316406 129.539062 49.636719 129.539062 50.457031 130.363281 C 51.28125 131.1875 51.28125 132.503906 50.457031 133.328125 C 40.089844 143.875 34.328125 157.882812 34.328125 173.046875 C 34.328125 204.027344 59.511719 229.242188 90.457031 229.242188 C 100.496094 229.242188 110.539062 226.441406 119.261719 221.167969 C 123.707031 219.191406 127.328125 216.71875 130.453125 213.421875 L 213.414062 130.363281 C 228.722656 115.035156 248.96875 106.628906 270.695312 106.628906 C 292.257812 106.628906 312.667969 115.035156 327.8125 130.363281 C 343.117188 145.6875 351.515625 165.960938 351.515625 187.546875 C 351.515625 209.136719 343.117188 229.574219 327.8125 244.734375 C 326.988281 245.558594 325.671875 245.558594 324.847656 244.734375 C 324.023438 243.910156 324.023438 242.59375 324.847656 241.769531 C 335.21875 231.222656 340.980469 217.210938 340.980469 202.050781 C 340.980469 171.066406 315.796875 145.855469 284.851562 145.855469 C 274.808594 145.855469 264.769531 148.65625 256.046875 153.929688 C 251.601562 155.90625 247.980469 158.378906 244.851562 161.675781 L 161.730469 244.898438 C 146.585938 260.0625 126.175781 268.628906 104.613281 268.628906 Z M 30.210938 168.925781 C 28.730469 175.023438 28.074219 181.285156 28.074219 187.546875 C 28.074219 208.148438 35.972656 227.265625 50.457031 241.769531 C 64.941406 256.269531 84.203125 264.179688 104.613281 264.179688 C 125.023438 264.179688 144.28125 256.269531 158.765625 241.769531 L 241.726562 158.707031 C 245.179688 155.246094 249.460938 152.28125 254.070312 150.304688 C 263.289062 144.863281 273.988281 141.734375 284.6875 141.734375 C 317.933594 141.734375 344.929688 168.761719 344.929688 202.050781 C 344.929688 203.371094 344.929688 204.6875 344.765625 206.171875 C 346.246094 200.074219 347.070312 193.976562 347.070312 187.546875 C 347.070312 166.949219 339.167969 147.832031 324.683594 133.328125 C 310.363281 118.824219 291.105469 110.914062 270.695312 110.914062 C 250.285156 110.914062 231.027344 118.824219 216.539062 133.328125 L 133.417969 216.390625 C 129.960938 219.847656 125.679688 222.816406 121.070312 224.792969 C 111.855469 230.230469 101.15625 233.363281 90.457031 233.363281 C 57.207031 233.363281 30.210938 206.335938 30.210938 173.046875 C 30.210938 171.5625 30.210938 170.246094 30.210938 168.925781 Z M 30.210938 168.925781 " fill-opacity="1" fill-rule="nonzero"/></g></svg>